<?xml version="1.0" standalone="no"?>
<!DOCTYPE svg PUBLIC "-//W3C//DTD SVG 20010904//EN"
 "http://www.w3.org/TR/2001/REC-SVG-20010904/DTD/svg10.dtd">
<svg version="1.0" xmlns="http://www.w3.org/2000/svg"
 width="1728.000000pt" height="361.000000pt" viewBox="0 0 1728.000000 361.000000"
 preserveAspectRatio="xMidYMid meet">

<g transform="translate(0.000000,361.000000) scale(0.100000,-0.100000)"
fill="#000000" stroke="none">
<path d="M0 1805 l0 -1805 1800 0 1800 0 0 1805 0 1805 -1800 0 -1800 0 0
-1805z m1664 1595 c246 -30 397 -58 368 -68 -7 -2 -12 -9 -12 -16 0 -6 -11
-27 -24 -46 -13 -19 -37 -60 -53 -90 -71 -128 -78 -138 -103 -143 -108 -21
-226 -37 -282 -37 -62 0 -83 -9 -58 -25 5 -3 14 -23 20 -45 6 -22 33 -72 60
-112 26 -41 52 -86 55 -101 4 -15 11 -30 16 -32 7 -5 -57 -141 -80 -169 -5 -6
-18 -33 -29 -60 -11 -30 -22 -44 -26 -37 -4 6 -12 9 -17 5 -29 -17 -249 164
-449 370 -266 274 -350 364 -350 373 0 12 171 179 197 192 13 6 76 16 140 22
65 5 174 16 243 23 175 19 201 19 384 -4z m1122 -97 c134 -90 229 -171 355
-305 l106 -113 -101 33 c-142 47 -290 69 -511 76 -189 7 -368 26 -398 43 -14
7 -8 21 36 93 130 213 127 209 182 219 62 13 105 17 176 19 53 2 60 -1 155
-65z m-868 -873 c42 -22 71 -44 244 -187 124 -102 239 -215 336 -330 29 -34
52 -65 52 -70 0 -4 -16 -20 -34 -35 l-35 -28 -234 0 c-266 0 -233 -11 -314
102 -26 36 -74 101 -107 143 -32 43 -69 100 -81 128 -21 44 -22 52 -10 71 8
12 24 39 37 62 72 128 94 164 101 164 4 0 24 -9 45 -20z m955 -980 c3 -19 6
-35 7 -35 1 0 3 -17 6 -37 3 -22 0 -38 -6 -38 -5 0 -10 -4 -10 -10 0 -8 -32
-55 -78 -115 -4 -5 -18 -28 -32 -49 -13 -22 -26 -34 -28 -28 -2 7 -8 9 -13 6
-12 -7 -73 32 -153 99 -32 27 -71 54 -85 60 -22 10 -10 12 83 15 l109 3 95 85
c51 47 95 84 97 82 2 -2 6 -19 8 -38z m-2259 -502 c12 -8 -20 -37 -41 -38 -7
0 -13 -5 -13 -11 0 -5 -4 -7 -10 -4 -5 3 -10 2 -10 -3 0 -6 -8 -13 -17 -17
-10 -3 -3 10 17 31 19 20 28 33 20 29 -13 -8 -13 -7 0 11 22 28 34 35 39 21 2
-7 9 -15 15 -19z m276 -221 c0 3 8 -1 18 -9 9 -8 43 -30 75 -47 66 -38 93 -39
274 -20 224 23 553 10 918 -37 100 -13 146 -24 174 -41 3 -2 -41 -63 -64 -89
-5 -6 -17 -22 -25 -34 -8 -13 -25 -35 -37 -49 -41 -47 -43 -50 -43 -58 -1 -19
-48 -61 -75 -67 -135 -31 -219 -36 -686 -42 -358 -5 -495 -4 -521 5 -19 6 -49
28 -65 49 -65 81 -120 158 -134 187 -17 34 -15 36 75 172 61 90 64 93 92 83
13 -5 24 -7 24 -3z"/>
<path d="M12468 3164 c-40 -30 -88 -31 -144 -3 -42 20 -54 20 -596 17 -542 -4
-554 -4 -610 -26 -32 -12 -64 -22 -71 -22 -8 0 -25 -8 -38 -19 -13 -10 -35
-22 -47 -26 -61 -18 -172 -114 -229 -195 -41 -58 -136 -248 -163 -325 -32 -90
-49 -256 -50 -487 0 -210 10 -297 36 -319 8 -6 14 -24 14 -39 0 -50 130 -184
202 -205 12 -4 30 -13 38 -20 29 -26 156 -69 325 -111 90 -23 108 -38 86 -73
-16 -25 -293 -40 -426 -23 -46 7 -50 9 -64 47 -17 45 -27 55 -58 55 -13 0 -32
14 -47 33 -22 29 -26 44 -26 105 0 63 -3 73 -25 90 -14 11 -25 29 -25 40 0 25
-25 52 -49 52 -10 0 -30 9 -44 21 -25 19 -44 20 -324 26 -164 3 -306 10 -316
15 -15 8 -16 16 -10 61 4 29 8 142 8 252 0 184 -2 206 -24 275 -13 41 -32 87
-42 101 -10 14 -21 37 -24 51 -10 38 -104 135 -140 144 -16 4 -41 15 -55 25
-14 10 -68 28 -120 41 -91 22 -112 23 -485 23 -374 0 -394 -1 -495 -24 -58
-13 -112 -29 -121 -37 -8 -8 -31 -19 -49 -26 -67 -23 -148 -90 -195 -161 -30
-46 -95 -45 -95 2 0 22 -51 95 -86 124 -16 13 -44 29 -63 36 -19 6 -42 17 -50
25 -9 7 -61 24 -116 37 -97 23 -113 24 -490 24 -485 0 -524 -6 -716 -101 -14
-8 -29 -11 -33 -7 -12 12 -6 90 10 134 12 34 14 66 10 144 -6 88 -9 102 -31
125 -14 14 -25 36 -25 48 0 17 -11 28 -42 43 -24 11 -54 26 -68 35 -22 12
-118 14 -715 11 l-690 -3 -88 -27 c-48 -14 -103 -35 -121 -46 -18 -12 -39 -21
-45 -21 -33 0 -121 -95 -158 -170 -7 -14 -17 -32 -23 -40 -5 -8 -16 -31 -25
-50 -8 -19 -19 -42 -24 -50 -15 -25 -57 -122 -74 -170 -8 -25 -20 -58 -25 -75
-19 -52 -43 -128 -54 -170 -6 -22 -17 -60 -25 -85 -8 -25 -21 -74 -28 -110 -8
-36 -19 -79 -25 -95 -6 -17 -18 -61 -25 -100 -7 -38 -20 -99 -29 -135 -17 -70
-41 -199 -56 -295 -5 -33 -19 -125 -31 -205 -19 -117 -23 -188 -24 -366 0
-200 2 -224 18 -242 10 -11 22 -35 27 -54 18 -64 98 -139 206 -193 l99 -50
735 0 735 0 29 22 c16 13 35 23 44 23 18 0 110 60 136 89 24 26 42 27 56 1 11
-20 126 -79 225 -116 46 -18 87 -19 575 -19 519 0 525 0 560 21 19 12 46 25
58 29 35 10 107 61 135 95 14 16 38 55 53 87 15 32 29 60 31 62 7 9 62 -53 68
-76 8 -33 74 -111 100 -119 11 -4 58 -25 105 -46 75 -36 97 -41 196 -50 61 -5
307 -8 545 -6 l434 3 90 48 c99 53 140 87 161 132 8 17 19 37 24 45 25 41 59
130 65 175 6 52 31 131 48 153 8 9 78 12 316 10 l306 -3 -2 -30 c-1 -16 -2
-92 -2 -167 0 -130 1 -140 24 -174 14 -20 25 -44 25 -53 1 -25 46 -71 82 -83
18 -6 43 -20 56 -32 24 -21 26 -21 685 -21 l662 0 55 23 c30 13 82 37 115 53
33 16 65 29 71 29 6 0 21 -11 34 -25 13 -14 29 -25 35 -25 7 0 34 -12 61 -27
l49 -28 292 0 c288 0 292 0 315 23 14 12 36 22 50 22 31 0 45 15 50 54 4 39
26 45 34 9 9 -39 21 -51 57 -58 18 -4 42 -17 55 -29 23 -20 33 -21 349 -24
318 -3 327 -3 355 18 46 34 84 37 121 9 l32 -24 311 0 c280 0 314 2 331 17 10
9 36 23 58 30 32 11 40 19 46 45 3 17 20 46 37 63 l31 31 47 -46 c26 -25 54
-45 62 -45 8 0 29 -9 46 -19 17 -11 63 -32 101 -47 l70 -28 310 0 c171 0 328
0 350 2 22 1 182 -1 356 -4 l317 -5 76 36 c62 29 76 40 76 59 0 13 11 35 25
50 23 25 25 34 25 123 0 83 -3 100 -20 118 -20 21 -20 25 -6 106 8 46 21 102
29 124 8 22 18 65 22 95 4 30 14 71 21 90 8 19 20 69 28 110 14 71 23 108 67
280 11 41 24 101 29 132 5 31 13 65 19 76 5 10 17 54 25 98 16 82 31 144 72
300 13 49 24 100 24 112 0 12 9 48 19 79 11 32 23 78 26 103 4 25 15 74 26
109 15 48 19 94 19 195 0 125 -1 134 -25 166 -14 19 -25 43 -25 53 0 25 -72
97 -97 97 -11 0 -33 10 -49 23 -28 21 -35 22 -309 25 -232 2 -284 0 -305 -13
-14 -8 -36 -19 -50 -26 -14 -6 -32 -14 -40 -19 -8 -4 -17 -18 -18 -31 -2 -13
-14 -35 -27 -49 -22 -23 -24 -35 -27 -163 -4 -191 21 -177 -314 -177 -292 0
-307 -2 -454 -73 -76 -37 -67 -30 -155 -108 -47 -41 -71 -57 -73 -47 -2 8 12
57 29 109 29 85 33 108 36 239 3 116 1 150 -11 170 -9 14 -23 41 -32 60 -20
44 -53 80 -73 80 -9 0 -34 11 -56 25 -40 24 -41 24 -301 25 -250 0 -262 -1
-288 -21 -14 -11 -41 -25 -59 -30 -27 -8 -37 -20 -64 -77 -45 -95 -53 -127
-61 -239 l-7 -98 -35 -11 c-45 -14 -689 3 -707 18 -9 7 -13 43 -13 112 0 70
-5 109 -15 126 -8 14 -23 44 -34 67 -24 51 -75 103 -100 103 -10 0 -31 10 -46
22 -32 25 -43 26 -357 32 l-237 4 -33 -24z m-6316 -259 c-2 -11 -7 -45 -11
-75 -4 -30 -14 -69 -23 -85 -9 -17 -19 -47 -23 -67 -7 -35 -10 -38 -73 -57
-61 -20 -90 -21 -441 -21 -371 -1 -462 -7 -469 -30 -3 -7 -17 -27 -33 -45 -16
-18 -29 -39 -29 -47 0 -8 -11 -29 -25 -48 -14 -19 -25 -42 -25 -53 0 -10 -8
-31 -19 -45 -10 -15 -22 -47 -26 -71 -4 -24 -16 -58 -26 -75 -10 -17 -19 -49
-19 -71 0 -22 -9 -60 -21 -84 -11 -25 -22 -72 -26 -105 -3 -34 -14 -81 -23
-106 -9 -25 -20 -80 -24 -122 -4 -43 -14 -97 -23 -120 -20 -53 -32 -393 -15
-425 6 -10 35 -31 64 -46 l53 -27 233 0 c258 0 274 3 335 63 27 27 42 59 66
132 17 53 31 107 31 120 0 13 9 47 20 74 10 27 22 73 26 103 4 29 13 65 20 80
36 70 11 81 -196 88 -153 5 -167 7 -198 29 -28 20 -33 28 -28 50 9 36 25 136
32 194 4 40 10 50 32 58 16 6 155 9 367 7 333 -3 341 -3 377 -26 20 -12 38
-28 41 -35 10 -26 -11 -195 -27 -219 -9 -14 -19 -56 -23 -94 -3 -38 -14 -89
-23 -114 -10 -25 -20 -74 -24 -109 -4 -36 -14 -77 -21 -91 -8 -15 -19 -64 -24
-108 -6 -45 -17 -94 -25 -109 -7 -16 -17 -59 -21 -98 -4 -38 -14 -82 -21 -97
-8 -16 -19 -62 -24 -103 -12 -97 -36 -133 -109 -165 l-56 -25 -590 0 -590 0
-65 24 c-51 18 -76 35 -117 78 -45 48 -53 62 -59 110 -4 34 0 95 11 166 9 62
22 168 30 237 7 69 18 138 24 153 6 15 17 76 25 135 8 59 21 123 29 142 8 19
18 63 21 97 4 35 14 80 23 100 8 21 19 66 24 101 5 34 16 73 23 85 8 12 19 50
25 84 5 34 17 75 25 91 8 16 18 49 22 73 4 24 14 58 24 74 10 17 20 46 24 65
6 34 13 50 73 175 59 121 109 183 163 203 14 5 63 19 110 30 81 19 115 20 665
18 574 -1 580 -1 577 -21z m6048 16 c0 -5 -7 -25 -15 -44 -8 -20 -15 -52 -15
-72 0 -20 -6 -48 -14 -63 -7 -15 -17 -43 -21 -62 -4 -19 -16 -45 -28 -57 -20
-23 -22 -23 -331 -23 -171 -1 -330 -5 -354 -9 -50 -10 -82 -37 -119 -100 -21
-37 -28 -64 -34 -139 -10 -135 3 -176 72 -229 30 -23 59 -42 65 -43 6 0 46
-11 88 -25 42 -14 92 -25 112 -25 19 0 54 -8 77 -19 23 -10 58 -22 77 -26 19
-4 42 -13 50 -20 8 -7 31 -21 51 -31 110 -58 162 -113 197 -210 27 -75 31
-241 7 -321 -8 -27 -19 -90 -24 -139 -5 -50 -19 -109 -30 -134 -11 -25 -21
-57 -21 -71 0 -15 -9 -37 -19 -51 -11 -13 -23 -38 -27 -54 -8 -33 -141 -169
-176 -179 -13 -4 -30 -13 -39 -21 -8 -7 -60 -26 -115 -41 l-99 -28 -518 0
-519 0 -34 37 c-37 41 -42 64 -20 106 8 16 20 57 26 92 6 35 17 76 25 90 7 14
16 49 20 78 7 55 19 67 29 29 3 -12 19 -36 36 -52 l31 -30 357 0 357 1 65 31
c110 53 161 129 178 263 15 117 5 165 -45 207 -50 44 -147 92 -198 99 -22 4
-49 12 -61 19 -12 8 -50 19 -85 25 -34 6 -80 20 -101 31 -20 10 -46 19 -56 19
-11 0 -31 9 -45 20 -14 11 -30 20 -35 20 -16 0 -79 60 -109 103 l-28 40 1 216
c0 197 2 221 22 274 12 32 22 68 22 80 1 25 44 117 78 164 12 17 22 34 22 38
0 16 99 121 147 156 28 21 71 43 95 48 24 6 61 17 83 25 33 12 120 15 493 15
253 1 452 -3 452 -8z m772 -8 c9 -10 23 -33 32 -50 15 -30 15 -35 0 -64 -8
-17 -19 -65 -23 -108 -5 -42 -15 -90 -24 -107 -8 -16 -19 -63 -23 -102 -3 -40
-15 -90 -25 -110 -11 -20 -19 -57 -19 -83 0 -25 -11 -81 -25 -123 -14 -42 -25
-100 -25 -128 0 -28 -5 -67 -12 -85 -15 -41 -2 -59 37 -49 14 4 85 64 158 134
73 70 173 166 224 212 93 87 105 106 107 169 l1 36 200 3 c222 3 260 -1 274
-27 8 -14 -32 -60 -245 -276 -141 -144 -254 -266 -254 -276 0 -28 32 -39 115
-39 125 0 182 -37 220 -144 29 -80 31 -102 10 -143 -8 -17 -18 -59 -21 -94 -3
-35 -14 -89 -24 -119 -10 -30 -21 -82 -25 -115 -4 -33 -15 -86 -26 -117 -10
-32 -19 -75 -19 -98 0 -22 -9 -63 -20 -92 -27 -70 -26 -150 1 -194 17 -28 18
-35 6 -40 -8 -3 -109 -4 -225 -2 -190 3 -212 5 -231 22 -25 23 -28 83 -6 126
8 15 18 55 21 87 4 32 15 81 25 108 11 28 22 75 26 105 3 30 15 78 25 105 13
31 22 85 25 145 l5 95 -35 34 -36 34 -148 4 c-81 2 -168 1 -192 -4 -42 -8 -44
-9 -67 -73 -13 -36 -27 -94 -30 -130 -4 -36 -13 -78 -22 -94 -8 -16 -18 -60
-23 -97 -4 -37 -17 -95 -29 -128 -11 -33 -20 -76 -20 -95 0 -20 -9 -59 -21
-88 -20 -50 -21 -92 -5 -130 11 -25 -37 -31 -213 -27 -142 4 -151 5 -175 28
-31 29 -34 75 -11 141 8 24 18 68 21 99 3 31 14 83 24 116 10 33 22 85 25 115
3 30 15 82 25 115 10 33 21 85 25 115 3 30 14 82 25 115 10 33 21 89 25 124 3
36 13 77 20 92 8 15 19 65 24 111 5 45 17 100 26 121 9 21 19 69 22 105 3 37
14 87 23 112 10 25 21 74 24 110 4 36 16 92 26 125 10 33 21 87 24 120 3 33
12 80 21 105 22 60 37 212 26 244 -6 13 -7 27 -4 30 4 3 88 6 188 6 161 0 184
-2 197 -17z m1738 -2 c13 -25 13 -67 0 -91 -5 -10 -13 -44 -16 -76 -4 -33 -12
-62 -18 -66 -6 -4 -87 -7 -180 -6 -196 2 -201 4 -190 77 4 25 13 63 20 85 8
21 14 48 14 61 0 12 3 25 7 28 3 4 84 7 179 7 161 0 174 -1 184 -19z m1872 6
c7 -8 22 -30 33 -51 19 -36 19 -38 2 -68 -10 -17 -21 -61 -24 -97 -3 -36 -14
-82 -23 -101 -10 -19 -21 -64 -25 -100 -4 -36 -14 -78 -23 -95 -8 -16 -18 -62
-23 -102 -4 -39 -15 -85 -23 -101 -8 -16 -19 -63 -24 -104 -5 -41 -17 -88 -25
-104 -9 -17 -19 -59 -23 -95 -4 -35 -13 -77 -22 -94 -8 -16 -18 -62 -23 -102
-4 -39 -15 -86 -24 -102 -8 -17 -18 -59 -22 -93 -3 -35 -14 -83 -23 -108 -10
-25 -20 -74 -24 -109 -4 -36 -14 -77 -22 -93 -8 -15 -19 -62 -24 -103 -5 -41
-17 -90 -27 -108 -13 -24 -17 -58 -17 -138 -1 -92 2 -110 18 -128 36 -39 13
-44 -199 -39 l-197 4 -25 29 c-21 23 -24 35 -19 64 4 20 11 65 17 99 5 35 16
73 24 85 20 28 19 71 -1 88 -15 12 -18 11 -28 -6 -6 -10 -23 -30 -38 -44 -16
-14 -28 -33 -28 -41 0 -9 -11 -31 -25 -50 -14 -19 -25 -39 -25 -44 0 -28 -79
-122 -125 -150 -48 -28 -56 -30 -195 -34 -80 -2 -170 1 -200 6 -98 19 -190 50
-222 77 -35 30 -88 103 -88 123 0 8 -10 46 -21 84 -19 61 -21 87 -16 177 3 58
10 119 16 134 6 15 15 66 20 112 6 46 17 98 26 114 8 17 18 52 22 78 3 27 17
71 30 98 12 28 23 61 23 74 0 13 9 38 19 55 10 17 22 47 26 66 4 19 16 49 26
66 10 17 19 38 19 46 0 8 11 32 25 52 14 20 25 42 25 48 0 27 120 192 175 241
67 59 94 74 170 97 75 22 100 24 402 28 240 3 325 7 333 17 5 6 13 34 16 61 3
27 12 67 21 89 19 51 35 243 22 267 -6 10 -7 23 -4 28 10 16 371 13 387 -3z
m-9079 -442 c117 -21 144 -29 171 -52 51 -44 85 -125 93 -223 11 -120 -9 -426
-30 -467 -9 -17 -20 -56 -23 -87 -6 -52 -9 -57 -46 -76 -37 -19 -56 -20 -496
-20 -448 0 -526 -5 -543 -32 -5 -7 -9 -38 -9 -68 0 -30 -7 -77 -15 -104 -34
-112 -4 -205 80 -246 42 -21 55 -21 372 -18 l328 3 68 37 67 37 0 -25 c0 -14
-7 -35 -15 -47 -8 -13 -19 -55 -25 -95 -5 -40 -16 -85 -24 -100 -8 -15 -17
-44 -21 -63 -12 -65 -87 -113 -220 -141 -32 -6 -169 -8 -385 -4 -310 5 -342 7
-424 29 -83 21 -93 27 -132 72 -42 47 -49 64 -84 220 -15 65 -11 192 9 320 11
66 23 152 26 190 4 39 14 85 21 103 8 19 19 64 25 100 7 37 20 83 30 102 11
19 19 46 19 60 0 14 12 48 25 75 14 28 25 56 25 63 0 7 9 30 20 50 10 20 25
51 33 67 8 17 26 53 42 80 15 28 34 62 42 77 19 37 151 157 177 162 174 34
277 44 471 45 182 1 228 -2 348 -24z m1672 14 c33 -5 98 -16 143 -24 76 -13
87 -18 123 -55 21 -22 39 -45 39 -50 0 -6 9 -23 20 -38 15 -22 21 -50 25 -142
9 -157 -8 -397 -30 -440 -9 -18 -19 -57 -22 -86 -5 -47 -11 -58 -37 -77 -31
-22 -35 -22 -527 -27 -400 -4 -499 -8 -512 -19 -12 -9 -17 -29 -17 -65 0 -28
-7 -76 -15 -106 -31 -115 -11 -203 57 -252 l33 -23 341 0 341 0 57 29 c31 16
59 33 62 37 3 5 9 9 15 9 14 0 11 -43 -6 -66 -8 -12 -19 -52 -25 -90 -15 -98
-56 -209 -88 -241 -29 -29 -96 -58 -177 -75 -32 -6 -170 -8 -385 -5 -311 5
-341 7 -423 29 -75 20 -95 30 -131 66 -39 38 -45 51 -69 149 -41 164 -39 236
22 618 11 68 35 169 58 235 8 25 21 69 28 98 7 29 20 63 28 75 7 12 17 36 21
52 9 36 101 226 131 272 70 103 164 182 216 184 13 0 71 8 129 19 121 21 475
27 575 9z m5456 -10 c18 -18 20 -28 13 -87 -4 -36 -15 -84 -25 -106 -11 -23
-19 -65 -19 -96 0 -33 -9 -73 -20 -99 -11 -24 -23 -75 -26 -115 -4 -39 -15
-91 -25 -116 -10 -25 -22 -79 -28 -120 -5 -41 -16 -93 -25 -115 -8 -22 -15
-59 -16 -83 0 -23 -9 -70 -20 -103 -12 -34 -24 -91 -27 -128 -3 -36 -12 -78
-19 -93 -8 -15 -19 -62 -25 -105 -6 -43 -20 -105 -31 -138 -16 -50 -19 -80
-16 -173 3 -109 2 -113 -19 -118 -11 -3 -98 -4 -191 -2 l-171 3 -30 29 c-36
34 -41 80 -16 139 8 20 18 62 21 94 4 32 15 78 24 103 10 25 21 73 25 105 4
33 15 80 25 105 10 25 21 72 25 105 4 32 15 80 25 105 9 25 20 70 23 100 4 30
16 79 27 108 11 29 20 68 20 87 0 20 9 61 20 93 11 31 23 82 27 112 3 30 14
76 24 101 10 26 21 75 25 110 4 35 12 75 19 89 35 68 30 98 -33 223 -2 4 91 7
207 7 200 0 212 -1 232 -21z m-8431 -141 c0 -7 -5 -20 -10 -28 -12 -20 -33 0
-24 23 7 20 34 23 34 5z m5992 -83 c-3 -78 -19 -134 -39 -142 -9 -4 -30 2 -47
12 -17 10 -59 33 -93 50 -34 18 -68 37 -75 43 -7 6 -27 14 -43 18 -17 4 -42
13 -58 21 -15 7 -53 19 -85 24 -31 6 -61 13 -66 16 -27 17 46 23 264 20 l245
-2 -3 -60z m-1873 -754 c16 -10 9 -65 -20 -146 -10 -30 -19 -63 -19 -74 0 -20
-8 -21 -330 -23 -182 -2 -335 -1 -340 0 -15 5 -12 33 10 97 11 32 20 75 20 95
0 20 5 41 12 48 14 14 644 17 667 3z m-5199 -16 c8 -10 31 -15 69 -15 32 0 65
-6 75 -13 16 -12 17 -18 5 -58 -7 -24 -15 -47 -18 -51 -4 -4 -44 -8 -89 -9
-103 -3 -116 6 -100 71 21 90 33 105 58 75z"/>
<path d="M15575 2113 c-41 -11 -143 -122 -162 -177 -3 -10 -17 -39 -30 -63
-12 -24 -23 -52 -23 -62 0 -10 -9 -29 -19 -43 -11 -13 -23 -42 -26 -64 -4 -21
-15 -52 -25 -69 -10 -16 -20 -47 -23 -67 -3 -20 -14 -54 -24 -75 -14 -30 -18
-62 -18 -148 0 -107 1 -111 32 -156 17 -25 50 -58 74 -75 l43 -29 155 1 c136
1 163 4 214 23 36 14 64 33 75 49 9 15 22 33 29 40 6 7 15 34 18 60 4 26 15
72 25 102 11 30 22 78 26 105 4 28 15 72 25 98 11 26 19 61 19 78 0 17 11 63
24 102 13 40 26 95 29 124 3 29 13 66 22 84 9 17 17 58 18 92 2 57 0 61 -23
68 -28 8 -424 9 -455 2z m125 -341 c0 -10 -6 -26 -14 -37 -7 -11 -17 -51 -21
-89 -4 -37 -15 -92 -25 -120 -10 -29 -21 -72 -25 -97 -8 -52 -29 -79 -60 -79
-40 0 -42 40 -5 130 36 88 80 209 80 219 0 6 9 15 20 21 11 6 20 21 20 34 0
12 3 26 7 29 12 13 23 7 23 -11z"/>
<path d="M7025 2225 c-22 -8 -52 -14 -66 -14 -32 -1 -85 -40 -126 -94 -18 -23
-39 -49 -47 -57 -8 -9 -19 -35 -25 -59 -5 -23 -16 -50 -25 -60 -22 -25 -20
-77 4 -101 20 -20 30 -21 325 -18 372 4 345 -8 352 154 l6 109 -35 45 c-18 25
-49 52 -68 62 -96 46 -215 59 -295 33z"/>
<path d="M8775 2225 c-27 -8 -62 -17 -77 -20 -51 -10 -177 -152 -178 -200 0
-11 -9 -33 -20 -50 -26 -39 -26 -96 -1 -119 17 -15 48 -17 326 -14 366 4 338
-8 349 143 7 86 5 101 -14 140 -11 24 -37 55 -56 70 -68 52 -231 76 -329 50z"/>
</g>
</svg>
